HIERARCHY
ROOT hip
{
  OFFSET 0 0 0
  CHANNELS 6 Xposition Yposition Zposition Zrotation Yrotation Xrotation
  JOINT abdomen
  {
    OFFSET 0 20.6881 -0.73152
    CHANNELS 3 Zrotation Xrotation Yrotation
    JOINT chest
    {
      OFFSET 0 11.7043 -0.48768
      CHANNELS 3 Zrotation Xrotation Yrotation
      JOINT neck
      {
        OFFSET 0 22.1894 -2.19456
        CHANNELS 3 Zrotation Xrotation Yrotation
        JOINT head
        {
          OFFSET -0.24384 7.07133 1.2192
          CHANNELS 3 Zrotation Xrotation Yrotation
          JOINT leftEye
          {
            OFFSET 4.14528 8.04674 8.04672
            CHANNELS 3 Zrotation Xrotation Yrotation
            End Site
            {
              OFFSET 1 0 0
            }
          }
          JOINT rightEye
          {
            OFFSET -3.6576 8.04674 8.04672
            CHANNELS 3 Zrotation Xrotation Yrotation
            End Site
            {
              OFFSET 1 0 0
            }
          }
        }
      }
      JOINT rCollar
      {
        OFFSET -2.68224 19.2634 -4.8768
        CHANNELS 3 Zrotation Xrotation Yrotation
        JOINT rShldr
        {
          OFFSET -8.77824 -1.95073 1.46304
          CHANNELS 3 Zrotation Xrotation Yrotation
          JOINT rForeArm
          {
            OFFSET -28.1742 -1.7115 0.48768
            CHANNELS 3 Zrotation Xrotation Yrotation
            JOINT rHand
            {
              OFFSET -22.5879 0.773209 7.07136
              CHANNELS 3 Zrotation Xrotation Yrotation
              JOINT rThumb1
              {
                OFFSET -1.2192 -0.487915 3.41376
                CHANNELS 3 Zrotation Xrotation Yrotation
                JOINT rThumb2
                {
                  OFFSET -3.37035 -0.52449 3.41376
                  CHANNELS 3 Zrotation Xrotation Yrotation
                  End Site
                  {
                    OFFSET -1.78271 -1.18214 1.43049
                  }
                }
              }
              JOINT rIndex1
              {
                OFFSET -7.75947 0.938293 5.60832
                CHANNELS 3 Zrotation Xrotation Yrotation
                JOINT rIndex2
                {
                  OFFSET -2.54057 -0.884171 1.56538
                  CHANNELS 3 Zrotation Xrotation Yrotation
                  End Site
                  {
                    OFFSET -1.62519 -0.234802 1.16502
                  }
                }
              }
              JOINT rMid1
              {
                OFFSET -8.24714 1.18213 3.41376
                CHANNELS 3 Zrotation Xrotation Yrotation
                JOINT rMid2
                {
                  OFFSET -3.10165 -0.590103 1.0647
                  CHANNELS 3 Zrotation Xrotation Yrotation
                  End Site
                  {
                    OFFSET -2.48547 -0.328903 0.83742
                  }
                }
              }
              JOINT rRing1
              {
                OFFSET -8.82822 0.546677 1.51678
                CHANNELS 3 Zrotation Xrotation Yrotation
                JOINT rRing2
                {
                  OFFSET -2.60934 -0.819778 -0.0198488
                  CHANNELS 3 Zrotation Xrotation Yrotation
                  End Site
                  {
                    OFFSET -2.33842 -0.294052 0.168128
                  }
                }
              }
              JOINT rPinky1
              {
                OFFSET -8.27202 -0.0477905 -0.4584
                CHANNELS 3 Zrotation Xrotation Yrotation
                JOINT rPinky2
                {
                  OFFSET -1.82734 -0.647385 -0.700984
                  CHANNELS 3 Zrotation Xrotation Yrotation
                  End Site
                  {
                    OFFSET -1.69225 -0.51767 -0.607171
                  }
                }
              }
            }
          }
        }
      }
      JOINT lCollar
      {
        OFFSET 2.68224 19.2634 -4.8768
        CHANNELS 3 Zrotation Xrotation Yrotation
        JOINT lShldr
        {
          OFFSET 8.77824 -1.95073 1.46304
          CHANNELS 3 Zrotation Xrotation Yrotation
          JOINT lForeArm
          {
            OFFSET 28.1742 -1.7115 0.48768
            CHANNELS 3 Zrotation Xrotation Yrotation
            JOINT lHand
            {
              OFFSET 22.5879 0.773209 7.07136
              CHANNELS 3 Zrotation Xrotation Yrotation
              JOINT lThumb1
              {
                OFFSET 1.2192 -0.487915 3.41376
                CHANNELS 3 Zrotation Xrotation Yrotation
                JOINT lThumb2
                {
                  OFFSET 3.37035 -0.52449 3.41376
                  CHANNELS 3 Zrotation Xrotation Yrotation
                  End Site
                  {
                    OFFSET 1.78271 -1.18214 1.43049
                  }
                }
              }
              JOINT lIndex1
              {
                OFFSET 7.75947 0.938293 5.60832
                CHANNELS 3 Zrotation Xrotation Yrotation
                JOINT lIndex2
                {
                  OFFSET 2.54057 -0.884171 1.56538
                  CHANNELS 3 Zrotation Xrotation Yrotation
                  End Site
                  {
                    OFFSET 1.62519 -0.234802 1.16502
                  }
                }
              }
              JOINT lMid1
              {
                OFFSET 8.24714 1.18213 3.41376
                CHANNELS 3 Zrotation Xrotation Yrotation
                JOINT lMid2
                {
                  OFFSET 3.10165 -0.590103 1.0647
                  CHANNELS 3 Zrotation Xrotation Yrotation
                  End Site
                  {
                    OFFSET 2.48547 -0.328903 0.83742
                  }
                }
              }
              JOINT lRing1
              {
                OFFSET 8.82822 0.546677 1.51678
                CHANNELS 3 Zrotation Xrotation Yrotation
                JOINT lRing2
                {
                  OFFSET 2.60934 -0.819778 -0.0198488
                  CHANNELS 3 Zrotation Xrotation Yrotation
                  End Site
                  {
                    OFFSET 2.33842 -0.294052 0.168128
                  }
                }
              }
              JOINT lPinky1
              {
                OFFSET 8.27202 -0.0477905 -0.4584
                CHANNELS 3 Zrotation Xrotation Yrotation
                JOINT lPinky2
                {
                  OFFSET 1.82734 -0.647385 -0.700984
                  CHANNELS 3 Zrotation Xrotation Yrotation
                  End Site
                  {
                    OFFSET 1.69225 -0.51767 -0.607171
                  }
                }
              }
            }
          }
        }
      }
    }
  }
  JOINT rButtock
  {
    OFFSET -8.77824 4.35084 1.2192
    CHANNELS 3 Zrotation Xrotation Yrotation
    JOINT rThigh
    {
      OFFSET 0 -1.70687 -2.19456
      CHANNELS 3 Zrotation Xrotation Yrotation
      JOINT rShin
      {
        OFFSET 0 -36.8199 0.73152
        CHANNELS 3 Zrotation Xrotation Yrotation
        JOINT rFoot
        {
          OFFSET 0.73152 -45.1104 -5.12064
          CHANNELS 3 Zrotation Xrotation Yrotation
          End Site
          {
            OFFSET -1.1221 -3.69964 12.103
          }
        }
      }
    }
  }
  JOINT lButtock
  {
    OFFSET 8.77824 4.35084 1.2192
    CHANNELS 3 Zrotation Xrotation Yrotation
    JOINT lThigh
    {
      OFFSET 0 -1.70687 -2.19456
      CHANNELS 3 Zrotation Xrotation Yrotation
      JOINT lShin
      {
        OFFSET 0 -36.8199 0.73152
        CHANNELS 3 Zrotation Xrotation Yrotation
        JOINT lFoot
        {
          OFFSET -0.73152 -45.1104 -5.12064
          CHANNELS 3 Zrotation Xrotation Yrotation
          End Site
          {
            OFFSET 1.1221 -3.69964 12.103
          }
        }
      }
    }
  }
}
MOTION
Frames:	8
Frame Time:	0.00833333
21.3093 83.5797 43.0014 -177.397 12.017 179.785 12.0476 4.41307 1.12417 4.86292 -1.00025 0.849237 -9.31238 -3.67508 -2.32919 5.57405 -8.18834 -0.92952 -0.0 0.0 0.0 -0.0 0.0 0.0 -3.16206e-14 -9.31824e-14 -1.72203e-13 32.3636 9.31909 57.6588 -14.4943 -7.36027 26.5542 -0.00366344 -1.72709 -0.242802 1.18079e-09 -2.76752e-09 6.1702e-10 2.04037e-09 -4.78483e-09 1.06567e-09 1.1808e-09 -2.76751e-09 6.17005e-10 7.73091 5.47488 0.417314 1.18079e-09 -2.76752e-09 6.17017e-10 2.90554 0.965183 0.102902 1.1808e-09 -2.76751e-09 6.1702e-10 10.2786 0.731801 0.0259123 1.18079e-09 -2.76752e-09 6.17034e-10 2.22167 -0.733487 -0.20892 -3.15872e-14 -9.32034e-14 -1.72402e-13 -22.8146 -13.0439 -52.2725 15.4066 -8.14745 -28.4298 0.33179 16.17 -2.3355 -3.41432e-10 -8.79078e-10 -2.46508e-12 -5.92442e-10 -1.53969e-09 5.62647e-13 -3.41435e-10 -8.79089e-10 -2.45323e-12 -7.73091 5.47488 -0.417314 -3.4143e-10 -8.7909e-10 -2.46099e-12 -2.90554 0.965183 -0.102902 -3.41439e-10 -8.79078e-10 -2.46644e-12 -10.2786 0.731801 -0.0259123 -3.41424e-10 -8.79074e-10 -2.4763e-12 -2.22167 -0.733487 0.20892 -2.03217e-16 0.0 -3.88251e-19 3.28147 -3.33959 4.03697 -7.25071e-05 25.0619 0.737148 -1.27198 -15.4178 -3.24742 2.03217e-16 0.0 3.88251e-19 16.4361 -31.9339 7.33643 0.214829 32.5253 -0.61545 -0.631398 -10.8268 -3.41079
21.2396 83.5615 42.3084 -177.659 12.616 179.846 12.0813 4.39006 1.00577 4.89315 -1.02161 0.815798 -9.3966 -3.30329 -2.18904 5.62016 -8.60357 -0.654412 -0.0 0.0 0.0 -0.0 0.0 0.0 -5.14832e-14 -8.57657e-14 -1.17581e-13 32.3092 9.7731 57.6567 -14.5184 -7.3804 26.6029 -0.00367665 -1.73108 -0.243363 6.64801e-10 -1.31842e-09 4.29798e-10 1.14916e-09 -2.28654e-09 7.41221e-10 6.64808e-10 -1.31841e-09 4.29785e-10 7.73091 5.47488 0.417314 6.64799e-10 -1.31842e-09 4.29795e-10 2.90554 0.965183 0.102902 6.64805e-10 -1.31842e-09 4.29798e-10 10.2786 0.731801 0.0259123 6.64803e-10 -1.31842e-09 4.29814e-10 2.22167 -0.733487 -0.20892 -5.14409e-14 -8.57849e-14 -1.1778e-13 -22.8445 -12.888 -51.9915 15.4171 -8.15673 -28.4515 0.32905 16.1048 -2.32557 -3.85362e-10 -7.15454e-10 -7.97683e-11 -6.68924e-10 -1.25996e-09 -1.32462e-10 -3.85365e-10 -7.15465e-10 -7.97588e-11 -7.73091 5.47488 -0.417314 -3.8536e-10 -7.15466e-10 -7.97619e-11 -2.90554 0.965183 -0.102902 -3.85369e-10 -7.15454e-10 -7.97683e-11 -10.2786 0.731801 -0.0259123 -3.85354e-10 -7.15449e-10 -7.97779e-11 -2.22167 -0.733487 0.20892 -2.03217e-16 0.0 -3.88251e-19 3.1619 -2.69081 4.29466 0.00527867 24.5583 0.733243 -1.23682 -15.5678 -3.13201 2.03217e-16 0.0 3.88251e-19 16.6415 -32.0585 7.2899 0.201982 31.6083 -0.604662 -0.444916 -10.7027 -2.76895
21.1525 83.4667 41.6088 -177.793 13.0879 179.852 12.0422 4.3816 1.02229 4.88195 -0.987885 0.814184 -9.31629 -3.22826 -2.09477 5.51676 -8.79718 -0.506964 -0.0 0.0 0.0 -0.0 0.0 0.0 -5.64493e-14 -5.9071e-14 -2.11174e-14 32.3004 10.0838 57.5591 -14.5631 -7.41805 26.6938 -0.00395221 -1.79402 -0.252217 -4.48921e-11 2.26403e-10 2.90919e-11 -7.67793e-11 3.77508e-10 4.77599e-11 -4.48865e-11 2.26412e-10 2.90844e-11 7.73091 5.47488 0.417314 -4.4894e-11 2.26404e-10 2.90902e-11 2.90554 0.965183 0.102902 -4.4889e-11 2.26405e-10 2.90934e-11 10.2786 0.731801 0.0259123 -4.4891e-11 2.26403e-10 2.91088e-11 2.22167 -0.733487 -0.20892 -5.64232e-14 -5.9084e-14 -2.12894e-14 -22.9474 -12.8268 -51.9571 15.3913 -8.1339 -28.3978 0.331377 16.1603 -2.33403 -3.96487e-10 -2.89106e-10 -1.65699e-10 -6.88064e-10 -5.25097e-10 -2.80626e-10 -3.96489e-10 -2.89113e-10 -1.65691e-10 -7.73091 5.47488 -0.417314 -3.96485e-10 -2.89115e-10 -1.65693e-10 -2.90554 0.965183 -0.102902 -3.96494e-10 -2.89105e-10 -1.65699e-10 -10.2786 0.731801 -0.0259123 -3.96479e-10 -2.89101e-10 -1.65706e-10 -2.22167 -0.733487 0.20892 -2.03217e-16 0.0 -3.88251e-19 3.01023 -2.09303 4.53042 0.00968396 24.0838 0.729255 -1.20654 -15.7748 -3.02466 2.03217e-16 0.0 3.88251e-19 16.8749 -32.1813 7.42689 0.190513 30.7532 -0.595514 -0.229555 -10.5628 -2.01594
21.1866 83.3567 40.9501 -177.379 13.718 179.972 11.9599 4.37502 1.11344 4.84583 -0.921264 0.829723 -9.13515 -3.31057 -2.02478 5.31594 -8.88159 -0.432768 -0.0 0.0 0.0 -0.0 0.0 0.0 -5.17549e-14 -1.77819e-14 1.09179e-13 32.3115 10.3209 57.4014 -14.6235 -7.46893 26.8168 -0.0044493 -1.89745 -0.266769 -9.40342e-10 2.00736e-09 -5.32693e-10 -1.62368e-09 3.44948e-09 -9.24175e-10 -9.40338e-10 2.00737e-09 -5.32694e-10 7.73091 5.47488 0.417314 -9.40343e-10 2.00736e-09 -5.32693e-10 2.90554 0.965183 0.102902 -9.4034e-10 2.00736e-09 -5.32689e-10 10.2786 0.731801 0.0259123 -9.40343e-10 2.00736e-09 -5.32676e-10 2.22167 -0.733487 -0.20892 -5.17625e-14 -1.7785e-14 1.09052e-13 -23.096 -12.8205 -52.0596 15.3425 -8.09053 -28.2961 0.336653 16.2847 -2.353 -3.81031e-10 3.31041e-10 -2.60965e-10 -6.60826e-10 5.45667e-10 -4.4515e-10 -3.81033e-10 3.31042e-10 -2.60958e-10 -7.73091 5.47488 -0.417314 -3.81029e-10 3.31036e-10 -2.60961e-10 -2.90554 0.965183 -0.102902 -3.81039e-10 3.31042e-10 -2.60964e-10 -10.2786 0.731801 -0.0259123 -3.81025e-10 3.31044e-10 -2.60969e-10 -2.22167 -0.733487 0.20892 -2.03217e-16 0.0 -3.88251e-19 2.83476 -1.53064 4.73559 0.0131967 23.6347 0.724943 -1.17578 -16.0255 -2.91172 2.03217e-16 0.0 3.88251e-19 17.1337 -32.2942 7.69648 0.180105 29.9455 -0.587676 0.00972242 -10.4051 -1.16415
21.2113 83.2979 40.3181 -177.223 14.4692 180.118 11.8842 4.37253 1.23554 4.79284 -0.843664 0.853623 -8.93952 -3.4763 -1.96723 5.11543 -8.90285 -0.37954 -0.0 0.0 0.0 -0.0 0.0 0.0 -4.60733e-14 2.09499e-14 2.14729e-13 32.3459 10.5044 57.2445 -14.6781 -7.51489 26.9283 -0.00484151 -1.97503 -0.277685 -1.62458e-09 3.31476e-09 -9.74448e-10 -2.80567e-09 5.70463e-09 -1.68837e-09 -1.62458e-09 3.31478e-09 -9.74442e-10 7.73091 5.47488 0.417314 -1.62458e-09 3.31475e-09 -9.74446e-10 2.90554 0.965183 0.102902 -1.62458e-09 3.31475e-09 -9.74443e-10 10.2786 0.731801 0.0259123 -1.62458e-09 3.31475e-09 -9.74431e-10 2.22167 -0.733487 -0.20892 -4.6115e-14 2.09573e-14 2.14648e-13 -23.2541 -12.8424 -52.1841 15.2934 -8.04706 -28.1945 0.342751 16.4261 -2.37461 -3.10216e-10 7.44286e-10 -3.08786e-10 -5.37547e-10 1.26238e-09 -5.285e-10 -3.10218e-10 7.44295e-10 -3.08779e-10 -7.73091 5.47488 -0.417314 -3.10215e-10 7.44285e-10 -3.08784e-10 -2.90554 0.965183 -0.102902 -3.10225e-10 7.44287e-10 -3.08784e-10 -10.2786 0.731801 -0.0259123 -3.10212e-10 7.44288e-10 -3.08787e-10 -2.22167 -0.733487 0.20892 -2.03217e-16 0.0 -3.88251e-19 2.67523 -1.00136 4.94963 0.0159321 23.2044 0.719819 -1.14645 -16.2802 -2.80601 2.03217e-16 0.0 3.88251e-19 17.433 -32.3972 8.0067 0.17045 29.1688 -0.580222 0.261728 -10.2186 -0.245138
21.1057 83.2541 39.6556 -177.367 14.8077 180.295 11.8647 4.37636 1.34488 4.73108 -0.777 0.877089 -8.8161 -3.65147 -1.91028 5.01357 -8.90698 -0.294902 -0.0 0.0 0.0 -0.0 0.0 0.0 -4.80783e-14 3.99728e-14 2.36951e-13 32.4064 10.6544 57.1503 -14.7055 -7.53799 26.9845 -0.0047159 -1.96043 -0.275629 -1.70064e-09 3.43889e-09 -1.01506e-09 -2.93687e-09 5.9182e-09 -1.75861e-09 -1.70064e-09 3.43892e-09 -1.01505e-09 7.73091 5.47488 0.417314 -1.70064e-09 3.43889e-09 -1.01506e-09 2.90554 0.965183 0.102902 -1.70064e-09 3.43889e-09 -1.01506e-09 10.2786 0.731801 0.0259123 -1.70065e-09 3.43889e-09 -1.01505e-09 2.22167 -0.733487 -0.20892 -4.81367e-14 3.99879e-14 2.36902e-13 -23.385 -12.8666 -52.2152 15.2675 -8.02408 -28.1409 0.347413 16.5327 -2.39092 -1.55262e-10 5.4993e-10 -2.5238e-10 -2.68563e-10 9.35109e-10 -4.33146e-10 -1.55264e-10 5.49943e-10 -2.52374e-10 -7.73091 5.47488 -0.417314 -1.55261e-10 5.4993e-10 -2.5238e-10 -2.90554 0.965183 -0.102902 -1.55271e-10 5.4993e-10 -2.52379e-10 -10.2786 0.731801 -0.0259123 -1.5526e-10 5.49931e-10 -2.5238e-10 -2.22167 -0.733487 0.20892 -2.03217e-16 0.0 -3.88251e-19 2.56987 -0.503041 5.212 0.0179882 22.7866 0.713406 -1.12103 -16.4992 -2.72042 2.03217e-16 0.0 3.88251e-19 17.7873 -32.4908 8.26511 0.161308 28.4065 -0.572268 0.514832 -9.9929 0.70951
21.0361 83.181 39.0073 -177.112 15.0843 180.565 11.9445 4.39265 1.44057 4.65148 -0.727332 0.902 -8.81216 -3.87152 -1.8543 5.089 -8.84727 -0.154507 -0.0 0.0 0.0 -0.0 0.0 0.0 -6.96155e-14 2.63418e-14 1.23185e-13 32.5148 10.7489 57.1551 -14.6889 -7.524 26.9506 -0.0037771 -1.79247 -0.251994 -7.78493e-10 1.63285e-09 -3.88548e-10 -1.34336e-09 2.80123e-09 -6.74803e-10 -7.78489e-10 1.63287e-09 -3.8854e-10 7.73091 5.47488 0.417314 -7.78492e-10 1.63284e-09 -3.88547e-10 2.90554 0.965183 0.102902 -7.78488e-10 1.63284e-09 -3.88546e-10 10.2786 0.731801 0.0259123 -7.78499e-10 1.63285e-09 -3.88536e-10 2.22167 -0.733487 -0.20892 -6.96596e-14 2.6362e-14 1.23149e-13 -23.4879 -12.9047 -52.1142 15.2774 -8.03277 -28.1613 0.350266 16.5977 -2.40088 1.61035e-10 -6.92988e-10 -1.64751e-11 2.79877e-10 -1.19296e-09 -3.02537e-11 1.61032e-10 -6.92975e-10 -1.6469e-11 -7.73091 5.47488 -0.417314 1.61035e-10 -6.92994e-10 -1.64767e-11 -2.90554 0.965183 -0.102902 1.61024e-10 -6.9299e-10 -1.64731e-11 -10.2786 0.731801 -0.0259123 1.61035e-10 -6.92987e-10 -1.64771e-11 -2.22167 -0.733487 0.20892 -2.03217e-16 0.0 -3.88251e-19 2.56693 -0.0597943 5.5563 0.0190201 22.3891 0.705179 -1.10693 -16.6734 -2.67766 2.03217e-16 0.0 3.88251e-19 18.2498 -32.5845 8.47719 0.152685 27.6562 -0.563427 0.775607 -9.69966 1.7388
21.0191 83.0992 38.3872 -176.996 15.7795 180.755 12.0871 4.41837 1.54234 4.55345 -0.6829 0.931638 -8.87321 -4.15752 -1.80444 5.27104 -8.71881 0.0101342 -0.0 0.0 0.0 -0.0 0.0 0.0 -1.02881e-13 -8.00525e-15 -8.29802e-14 32.6619 10.7852 57.2187 -14.6435 -7.48563 26.8577 -0.00257539 -1.52104 -0.213811 8.35424e-10 -1.53898e-09 6.91499e-10 1.44539e-09 -2.67231e-09 1.1936e-09 8.3543e-10 -1.53896e-09 6.91504e-10 7.73091 5.47488 0.417314 8.35426e-10 -1.53899e-09 6.91497e-10 2.90554 0.965183 0.102902 8.35432e-10 -1.53901e-09 6.91496e-10 10.2786 0.731801 0.0259123 8.35418e-10 -1.53899e-09 6.91505e-10 2.22167 -0.733487 -0.20892 -1.02893e-13 -7.98122e-15 -8.30112e-14 -23.579 -12.9643 -51.945 15.3084 -8.06025 -28.2257 0.3524 16.6464 -2.40834 6.00148e-10 -2.65939e-09 3.48603e-10 1.04112e-09 -4.56292e-09 5.93885e-10 6.00144e-10 -2.65938e-09 3.48609e-10 -7.73091 5.47488 -0.417314 6.00149e-10 -2.65941e-09 3.486e-10 -2.90554 0.965183 -0.102902 6.00137e-10 -2.6594e-09 3.48605e-10 -10.2786 0.731801 -0.0259123 6.00147e-10 -2.65939e-09 3.48597e-10 -2.22167 -0.733487 0.20892 -2.03217e-16 0.0 -3.88251e-19 2.63248 0.335324 5.95373 0.0190571 22.0122 0.695531 -1.1012 -16.8235 -2.66456 2.03217e-16 0.0 3.88251e-19 18.796 -32.6751 8.68207 0.144697 26.9261 -0.554204 1.0409 -9.35237 2.84282
